<?xml version="1.0" encoding="utf-8"?>
<!-- Generator: Adobe Illustrator 24.0.0, SVG Export Plug-In . SVG Version: 6.00 Build 0)  -->
<svg version="1.1" id="Layer_1" xmlns="http://www.w3.org/2000/svg" xmlns:xlink="http://www.w3.org/1999/xlink" x="0px" y="0px"
	 viewBox="0 0 256 173.6" style="enable-background:new 0 0 256 173.6;" xml:space="preserve">
<style type="text/css">
	.st0{fill:#E04431;}
	.st1{fill:#266BB3;}
	.st2{fill:#FFFFFF;}
</style>
<g>
	<g>
		<path class="st0" d="M173.1,46.7c-0.3-0.2-0.5-0.3-0.5-0.3c-0.9,0.8-1.7,1.6-2.6,2.4c2,1.5,3.2,3.3,2.6,6.2
			c-0.6,2.9-2.3,4.4-4.8,5c0.9,0.5,1.8,1,2.6,1.6c0.2,0.2,0.4,0.8,0.3,1c-1.1,2.6-2.2,5.1-3.3,7.7c-0.3,0.6-0.7,0.6-1.2,0.6
			c-2.7-0.4-4.7-2.4-4.8-5.1c-0.2-2.6,1.6-4.8,4.8-5.6c-2.4-0.5-4-1.6-5-3.8c-1,2.1-2.6,3.4-4.8,3.8c1.5,0.4,2.7,1.1,3.5,2.3
			c0.9,1.2,1.2,2.6,0.9,4.1c-0.5,2.5-2.7,4.4-5.3,4.4c-2.7,0-4.9-2-5.3-4.7c-0.4-2.7,1.3-5,4.6-6.1c-2.4-0.5-4.1-1.8-5-4.1
			c-0.9,2.3-2.6,3.6-5.2,4.1c1.7,0.4,2.9,1,3.8,2.2c0.9,1.2,1.2,2.5,1,4c-0.4,2.7-2.7,4.6-5.3,4.6c-2.7,0-4.8-2-5.3-4.7
			c-0.4-2.8,1.2-5,4.6-6.2c-2.4-0.5-4.1-1.8-5-4.1c-0.9,2.3-2.6,3.6-5,4.1c3.5,1.1,5.1,3.4,4.6,6.4c-0.5,2.6-2.8,4.6-5.4,4.4
			c-2.8-0.1-4.9-2.2-5.2-5c-0.3-2.6,1.5-5,4.8-5.8c-2.4-0.5-4-1.6-5-3.8c-1,2.1-2.6,3.4-4.8,3.8c1.5,0.4,2.7,1.1,3.6,2.4
			c0.8,1.3,1.1,2.6,0.8,4.1c-0.5,2.5-2.9,4.4-5.4,4.3c-2.7-0.1-4.8-2.1-5.2-4.8c-0.4-2.7,1.4-5,4.6-6c-2.4-0.5-4.1-1.8-5-4.1
			c-1,2.3-2.6,3.6-4.9,4.1c1.5,0.4,2.7,1.1,3.5,2.3c0.8,1.2,1.2,2.5,0.9,4c-0.5,2.6-2.7,4.5-5.3,4.5c-2.7,0-4.9-2-5.3-4.7
			c-0.4-2.7,1.3-5,4.4-6c-3.4-1.6-3.4-1.6-4.8-3.8c-1,2.1-2.6,3.3-5,3.8c1.8,0.4,3.1,1.1,3.9,2.5c0.8,1.3,1.1,2.7,0.7,4.2
			c-0.6,2.4-3,4.2-5.4,4.1c-2.8-0.2-4.9-2.2-5.2-5c-0.3-2.6,1.5-4.9,4.7-5.8c-2.4-0.5-4.1-1.8-5.1-4.1c-1,2.2-2.6,3.6-4.9,4.1
			c2.6,0.7,4.2,2.3,4.5,4.9c0.4,3-2.3,6-5.4,5.9c-0.3,0-0.7-0.3-0.8-0.5c-1.1-2.4-2.2-4.9-3.3-7.4c-0.1-0.3,0-1,0.3-1.2
			c0.9-0.7,1.9-1.2,2.8-1.8c0,0-0.3-0.1-0.6-0.2c-2.4-0.7-4.1-2.8-4.4-5.2c-0.1-1.3-0.3-2.6-0.5-3.9c0.1,0,0.2,0,0.2-0.1
			c0.2,0.3,0.4,0.6,0.6,0.8c0.8-0.9,1.6-1.9,2.4-2.8c-0.7-0.6-1.5-1.4-2.5-2.3c-0.1,0.2-0.3,0.5-0.4,0.8c-0.1,0-0.2-0.1-0.3-0.1
			c0.1-1.6,0.2-3.2,0.4-4.7c0.1-0.6,0.3-1.2,0.3-1.8c0-1.4,0.7-2.3,1.8-3.2c-1.6-0.6-0.8-1.7-0.5-2.5c1.8-5.8,4.6-11,8.4-15.8
			c4.5-5.6,10.1-9.9,16.6-12.9c3.7-1.7,7.6-2.9,11.6-3.5c3.6-0.6,7.3-0.8,11-0.5c3.2,0.2,6.5,0.9,9.6,1.7c4.9,1.3,9.4,3.5,13.6,6.4
			c3.7,2.6,6.9,5.7,9.8,9.2c2.4,2.9,4.3,6,5.8,9.4c1,2.3,1.8,4.7,2.6,7.1c0.2,0.4,0,1-0.1,1.8c1.1,0.7,1,2.3,1.2,3.8
			C172.7,43,172.8,44.8,173.1,46.7z M90.3,48.6c0.9,1,1.7,2.1,2.4,2.9c0.7-0.9,1.6-1.9,2.4-2.9c-0.8-0.7-1.6-1.5-2.4-2.2
			C91.9,47.1,91,47.9,90.3,48.6z M115.5,46.4c-0.8,0.8-1.7,1.5-2.4,2.2c0.8,1,1.7,2.1,2.4,2.9c0.8-0.9,1.6-2,2.4-2.9
			C117.1,47.9,116.3,47.2,115.5,46.4z M140.6,48.6c-0.8-0.7-1.6-1.5-2.4-2.2c-0.8,0.8-1.7,1.5-2.4,2.2c0.8,1,1.7,2.1,2.4,2.9
			C139,50.7,139.8,49.7,140.6,48.6z M152.1,48.6c-0.8-0.7-1.6-1.5-2.4-2.2c-0.8,0.7-1.6,1.5-2.4,2.2c0.8,1,1.7,2,2.4,2.9
			C150.4,50.7,151.3,49.7,152.1,48.6z M104.1,51.3c0.8-0.9,1.6-1.8,2.3-2.7c-0.8-0.7-1.6-1.4-2.3-2.1c-0.8,0.7-1.6,1.5-2.3,2.1
			C102.5,49.6,103.3,50.5,104.1,51.3z M126.8,51.3c0.8-0.9,1.6-1.8,2.4-2.7c-0.8-0.7-1.6-1.4-2.4-2.1c-0.8,0.7-1.6,1.4-2.3,2.1
			C125.3,49.6,126.1,50.5,126.8,51.3z M158.7,48.6c0.8,0.9,1.6,1.8,2.4,2.7c0.8-0.9,1.6-1.8,2.4-2.7c-0.8-0.7-1.6-1.4-2.4-2.1
			C160.3,47.2,159.5,48,158.7,48.6z M94.2,37.3c-0.5-0.5-1-1-1.6-1.4c-0.5,0.5-1,1-1.5,1.4c0.5,0.6,1,1.2,1.6,1.7
			C93.2,38.4,93.7,37.9,94.2,37.3z M115.5,39c0.5-0.6,1-1.2,1.5-1.7c-0.5-0.5-1.1-1-1.6-1.4c-0.5,0.5-1,1-1.5,1.4
			C114.4,37.9,114.9,38.4,115.5,39z M138.2,35.8c-0.5,0.5-1,1-1.5,1.4c0.5,0.6,1,1.1,1.6,1.7c0.5-0.6,1-1.1,1.5-1.7
			C139.3,36.8,138.7,36.3,138.2,35.8z M148.2,37.3c0.5,0.6,1,1.2,1.6,1.7c0.5-0.6,1-1.1,1.5-1.7c-0.5-0.5-1-1-1.5-1.4
			C149.2,36.3,148.7,36.8,148.2,37.3z M105.5,37.3c-0.5-0.4-1-0.9-1.5-1.3c-0.5,0.5-1,0.9-1.5,1.3c0.5,0.5,1,1,1.5,1.6
			C104.5,38.3,105,37.9,105.5,37.3z M126.9,36c-0.5,0.4-1,0.9-1.5,1.3c0.5,0.5,1,1.1,1.5,1.6c0.5-0.6,1-1.1,1.4-1.6
			C127.8,36.8,127.4,36.4,126.9,36z M161.1,36c-0.5,0.5-1,0.9-1.5,1.3c0.5,0.5,1,1,1.5,1.6c0.5-0.5,1-1,1.5-1.6
			C162.1,36.8,161.6,36.4,161.1,36z"/>
		<path class="st0" d="M102.7,77c-0.1,2.4-2.1,4.3-4.5,4.2c-2.4-0.1-4.2-2.1-4.1-4.4c0.1-2.4,2.1-4.3,4.5-4.2
			C101,72.7,102.8,74.7,102.7,77z"/>
		<path class="st0" d="M159.8,76.9c0,2.4-1.9,4.3-4.3,4.3c-2.4,0-4.3-1.9-4.3-4.3c0-2.4,1.9-4.3,4.3-4.3
			C157.9,72.6,159.7,74.5,159.8,76.9z"/>
		<path class="st0" d="M109.7,81.2c-2.4,0-4.3-1.9-4.2-4.3c0-2.3,1.9-4.2,4.3-4.2c2.4,0,4.3,1.9,4.2,4.3
			C113.9,79.3,112,81.2,109.7,81.2z"/>
		<path class="st0" d="M125.4,76.9c0,2.4-1.9,4.3-4.3,4.3c-2.3,0-4.2-1.9-4.2-4.2c0-2.4,1.9-4.3,4.3-4.3
			C123.6,72.7,125.4,74.5,125.4,76.9z"/>
		<path class="st0" d="M132.5,72.7c2.4,0,4.2,1.9,4.2,4.3c0,2.3-1.9,4.2-4.3,4.2c-2.4,0-4.2-1.9-4.2-4.3
			C128.3,74.5,130.2,72.6,132.5,72.7z"/>
		<path class="st0" d="M148.2,76.9c0,2.4-1.9,4.3-4.3,4.2c-2.3,0-4.2-1.9-4.2-4.3c0-2.4,1.9-4.3,4.3-4.2
			C146.4,72.7,148.2,74.6,148.2,76.9z"/>
		<path class="st0" d="M111.9,88.2c0,1.2-1,2.2-2.2,2.3c-1.2,0-2.2-1-2.3-2.2c0-1.2,1-2.2,2.2-2.3C110.9,85.9,111.9,86.9,111.9,88.2
			z"/>
		<path class="st0" d="M141.7,88c0.1-1.2,1.1-2.2,2.3-2.1c1.3,0,2.2,1.1,2.2,2.4c-0.1,1.3-1.1,2.2-2.4,2.1
			C142.5,90.3,141.7,89.3,141.7,88z"/>
		<path class="st0" d="M121.2,86c1.2,0,2.2,1.1,2.1,2.2c0,1.2-1.1,2.2-2.2,2.1c-1.2,0-2.2-1.1-2.1-2.2C119,87,120.1,86,121.2,86z"/>
		<path class="st0" d="M132.4,90.4c-1.2,0-2.2-1.1-2.1-2.2c0-1.2,1.1-2.2,2.2-2.1c1.2,0,2.2,1.1,2.1,2.2
			C134.6,89.4,133.6,90.4,132.4,90.4z"/>
		<path class="st0" d="M91,77.8c-1.2-1.7-2.5-3.4-3.8-5.2C89.9,72.7,91.7,75,91,77.8z"/>
		<path class="st0" d="M166.1,72.6c-1.3,1.7-2.4,3.3-3.6,5C161.9,75.3,163.6,73,166.1,72.6z"/>
	</g>
	<g>
		<path class="st1" d="M164.3,144.6c-3.2-0.6-5.4-2.1-6.7-5.2c-1.3,3-3.4,4.7-6.5,5.2c1.9,0.4,3.5,1.2,4.6,2.7
			c1.1,1.5,1.5,3.3,1.3,5.2c-0.5,3.3-3.5,5.7-6.8,5.6c-3.6-0.1-6.3-2.8-6.5-6.4c-0.2-3.5,2.2-6.4,6.3-7.1c-3.1-0.6-5.3-2-6.7-4.9
			c-1.4,2.8-3.5,4.3-6.4,4.9c1.9,0.4,3.5,1.2,4.6,2.7c1.2,1.6,1.6,3.4,1.3,5.3c-0.5,3.2-3.6,5.7-6.9,5.5c-3.6-0.2-6.3-2.9-6.4-6.5
			c-0.2-3.5,2.3-6.3,6.3-7c-3.3-0.6-5.5-2.2-6.8-5.2c-1.3,3-3.5,4.7-6.5,5.2c1.9,0.4,3.5,1.2,4.7,2.8c1.1,1.5,1.5,3.3,1.2,5.2
			c-0.5,3.3-3.5,5.7-6.8,5.6c-3.6-0.1-6.3-2.8-6.5-6.4c-0.2-3.5,2.2-6.4,6.3-7.1c-3.1-0.6-5.3-2-6.6-4.7c-2.7,3.5-2.7,3.5-6.6,4.7
			c2,0.3,3.6,1.1,4.7,2.7c1.2,1.6,1.6,3.4,1.2,5.3c-0.5,3.2-3.6,5.7-6.9,5.5c-3.5-0.2-6.2-2.8-6.4-6.4c-0.2-3.5,2.2-6.4,5.8-7.1
			c-1.1-0.5-2.5-1-3.6-1.8c-1.1-0.8-1.9-2.1-2.8-3.2c-1.1,2.7-3.3,4.3-6.8,4.9c2.3,0.3,3.8,1.1,5,2.6c1.2,1.5,1.6,3.2,1.3,5.1
			c-0.5,3.3-3.5,5.9-6.9,5.7c-3.5-0.1-6.2-2.8-6.5-6.3c-0.3-3.6,2.2-6.5,6.3-7.2c-3.1-0.6-5.3-2-6.7-4.9c-1.4,2.9-3.5,4.3-6.7,4.9
			c2.3,0.3,3.8,1.2,5,2.7c1.1,1.5,1.5,3.3,1.3,5.2c-0.5,3.3-3.5,5.7-6.8,5.6c-3.6-0.1-6.3-2.8-6.5-6.4c-0.2-3.5,2.2-6.4,5.8-7
			c-1.1-0.5-2.5-1-3.6-1.8c-1.1-0.8-1.9-2.1-2.8-3.2c-1.1,2.7-3.3,4.3-6.5,4.9c4.3,1,6.6,3.9,6.1,7.7c-0.4,3.4-3.4,5.9-6.8,5.8
			c-3.5-0.1-6.3-2.7-6.6-6.3c-0.3-3.6,2.2-6.5,5.8-7.1c-1.1-0.5-2.5-1-3.6-1.8c-1.1-0.8-1.9-2.1-2.8-3.2c-1.1,2.7-3.4,4.3-6.6,4.9
			c4.1,0.8,6.5,3.7,6.2,7.3c-0.3,3.5-3.2,6.2-6.7,6.2c-3.5,0-6.3-2.6-6.7-6.1c-0.4-3.7,2-6.6,6.2-7.5c-3.1-0.5-5.3-2-6.6-4.9
			c-1.4,2.9-3.5,4.4-6.4,4.9c1.9,0.4,3.5,1.2,4.6,2.7c1.2,1.6,1.6,3.3,1.3,5.3c-0.5,3.3-3.6,5.7-6.9,5.5c-3.5-0.2-6.2-2.8-6.5-6.3
			c-0.3-3.5,2.2-6.4,6.3-7.2c-3-0.5-5.2-1.8-6.5-4.4c1.1-1.2,2.2-2.5,3.3-3.6c4.5-4.6,9-9.1,13.4-13.7c2.5-2.5,4.9-5.1,7.4-7.7
			c2.6-2.6,5.1-5.3,7.7-7.9c2.4-2.5,4.9-5,7.3-7.6c2.5-2.6,4.9-5.1,7.4-7.7c2.5-2.6,4.9-5.1,7.4-7.7c2.4-2.5,4.9-5,7.3-7.6
			c2.5-2.6,5-5.2,7.5-7.8s5-5.2,7.5-7.7c1.9-1.9,3.7-3.9,5.6-5.8c0.4-0.4,1.1-0.7,1.7-0.7c9.7,0,19.4,0,29.1,0
			c0.5,0,1.2,0.3,1.5,0.6c4.4,4.4,8.7,8.9,13.1,13.3c2,2.1,4,4.2,6.1,6.3c2.9,3,5.8,5.9,8.7,8.9c2.4,2.5,4.8,4.9,7.1,7.4
			c2.6,2.7,5.2,5.4,7.9,8.1c2.4,2.5,4.8,5,7.2,7.5c2.7,2.8,5.3,5.6,8,8.4c-0.2,0.2-0.4,0.5-0.7,0.9c0.2,0.3,0.5,0.6,0.8,1
			c0.3-0.2,0.5-0.4,0.9-0.7c4,4.1,8,8.3,12.2,12.5c-0.6,0.4-1.2,0.9-1.7,1.3c1,1.2,2.1,2.4,3.1,3.6c0.4-0.6,0.8-1.2,1.3-2
			c3.5,3.7,7,7.2,10.7,11c-1.5,0.6-2.9,1.2-4.3,1.8c1.9,0.3,3.5,1.1,4.7,2.6c1.2,1.6,1.6,3.3,1.3,5.3c-0.5,3.2-3.4,5.6-6.7,5.6
			c-3.4-0.1-6.2-2.6-6.6-5.9c-0.4-3.8,1.7-6.5,6-7.6c-4.6-1.9-4.8-2-6.3-4.6c-0.9,1-1.7,2.2-2.8,3c-1.1,0.8-2.5,1.2-3.6,1.7
			c3.8,0.8,6.1,3.8,5.7,7.5c-0.4,3.5-3.3,6-6.8,6c-3.5-0.1-6.3-2.7-6.6-6.3c-0.3-3.6,2.2-6.5,6.3-7.2c-3.3-0.6-5.5-2.2-6.8-5.2
			c-1.3,3-3.5,4.7-6.9,5.2c4.2,0.8,6.7,3.7,6.3,7.4c-0.3,3.5-3.2,6.2-6.7,6.2c-3.5,0-6.3-2.6-6.7-6.1c-0.4-3.7,2-6.6,6.2-7.5
			c-3-0.5-5.2-2-6.6-4.9c-1.3,2.9-3.5,4.4-6.6,4.9c4.3,0.9,6.6,3.8,6.2,7.6c-0.4,3.5-3.3,6-6.8,6c-3.5-0.1-6.3-2.7-6.6-6.2
			c-0.3-3.6,2.1-6.6,6.2-7.3c-3.3-0.6-5.5-2.2-6.7-5.1c-2,3.4-2.7,3.9-6.4,5.1c1,0.5,2.2,0.8,3.1,1.6c0.9,0.7,1.8,1.8,2.2,2.9
			c0.4,1.1,0.5,2.5,0.3,3.7c-0.4,3.2-3.6,5.6-6.8,5.4c-3.5-0.2-6.1-2.7-6.4-6.2C157.8,148.4,160.1,145.5,164.3,144.6z M197.9,130.3
			c1,1.2,2,2.5,2.9,3.6c1-1.2,2-2.5,3-3.7c-0.9-0.8-2-1.7-2.9-2.5C199.9,128.6,198.8,129.5,197.9,130.3z M59.7,130.3
			c-0.9-0.8-2-1.7-3-2.5c-1,0.9-2,1.7-2.9,2.5c1,1.3,2.1,2.5,3,3.7C57.7,132.8,58.7,131.5,59.7,130.3z M169.2,130.3
			c1,1.2,2,2.5,2.9,3.6c0.9-1.1,1.9-2.4,2.9-3.6c-0.9-0.8-1.9-1.7-2.9-2.5C171.1,128.7,170.1,129.6,169.2,130.3z M160.5,130.3
			c-0.9-0.8-1.9-1.6-2.9-2.5c-1,0.8-2,1.7-2.9,2.5c1,1.3,2,2.5,2.9,3.6C158.5,132.8,159.5,131.5,160.5,130.3z M131.7,130.3
			c-0.9-0.8-1.9-1.6-2.9-2.5c-1,0.8-2,1.7-2.9,2.5c1,1.3,2,2.5,2.9,3.6C129.7,132.8,130.7,131.5,131.7,130.3z M100,133.9
			c0.9-1.1,1.9-2.4,2.9-3.6c-0.9-0.8-1.9-1.7-2.9-2.5c-1,0.9-2,1.7-2.9,2.5C98.1,131.6,99.1,132.8,100,133.9z M71.3,127.8
			c-1,0.9-2,1.7-2.9,2.5c1,1.2,2,2.5,2.9,3.6c0.9-1.1,1.9-2.4,2.9-3.6C73.3,129.5,72.3,128.7,71.3,127.8z M45.2,130.3
			c-0.9-0.8-2-1.7-3-2.6c-1,0.8-2,1.7-2.9,2.4c1,1.2,2.1,2.4,3,3.5C43.3,132.5,44.3,131.4,45.2,130.3z M183.6,130.3
			c1,1.1,1.9,2.3,2.8,3.3c0.9-1.1,1.9-2.2,2.8-3.3c-0.9-0.7-1.9-1.5-2.8-2.3C185.5,128.8,184.5,129.6,183.6,130.3z M143.2,128
			c-1,0.8-2,1.6-2.8,2.3c0.9,1.1,1.9,2.2,2.8,3.3c0.9-1.1,1.9-2.2,2.8-3.3C145.1,129.6,144.2,128.8,143.2,128z M114.4,128
			c-1,0.8-2,1.6-2.8,2.3c1,1.1,1.9,2.3,2.8,3.3c0.9-1.1,1.9-2.2,2.8-3.3C116.4,129.6,115.4,128.8,114.4,128z M85.6,133.6
			c0.9-1.1,1.9-2.2,2.8-3.3c-0.9-0.7-1.9-1.6-2.8-2.3c-1,0.8-2,1.6-2.8,2.3C83.8,131.4,84.7,132.5,85.6,133.6z M56.7,117.1
			c0.3-0.3,0.6-0.6,1-1c-0.3-0.3-0.5-0.6-0.8-0.9c-0.4,0.4-0.7,0.6-1,0.9C56.2,116.5,56.4,116.8,56.7,117.1z M172.9,116.1
			c-0.3-0.3-0.5-0.6-0.8-0.9c-0.4,0.3-0.6,0.6-0.9,0.9c0.3,0.3,0.6,0.6,0.9,0.9C172.4,116.7,172.6,116.5,172.9,116.1z M157.6,117.1
			c0.3-0.4,0.6-0.7,0.8-1c-0.3-0.3-0.6-0.5-0.9-0.8c-0.3,0.3-0.6,0.5-0.9,0.8C157,116.5,157.2,116.7,157.6,117.1z M127.9,116.1
			c0.3,0.4,0.6,0.6,0.9,1c0.3-0.3,0.5-0.6,0.8-1c-0.3-0.3-0.6-0.5-0.9-0.8C128.5,115.6,128.2,115.8,127.9,116.1z M100.9,116.1
			c-0.4-0.3-0.6-0.5-0.9-0.8c-0.3,0.3-0.5,0.6-0.8,0.8c0.3,0.3,0.6,0.6,0.8,0.9C100.3,116.8,100.6,116.5,100.9,116.1z M71.3,117.1
			c0.3-0.4,0.6-0.7,0.8-1c-0.3-0.3-0.6-0.5-0.9-0.8c-0.3,0.3-0.6,0.5-0.9,0.7C70.7,116.5,71,116.7,71.3,117.1z"/>
		<path class="st1" d="M14.5,153.9c3-2.7,6.2-5.4,9.5-8.4c2.1,0.9,3.7,3.5,3.4,6.6c-0.2,2.8-2.5,5.2-5.2,5.8
			C19.1,158.6,16.2,157.2,14.5,153.9z"/>
		<path class="st1" d="M222.3,171.3c-3.2,0-5.7-2.4-5.7-5.6c0-3.2,2.5-5.8,5.7-5.8c3.2,0,5.8,2.6,5.7,5.7
			C228.1,169.2,224.9,171.7,222.3,171.3z"/>
		<path class="st1" d="M208,171.3c-3.2,0-5.6-2.4-5.7-5.6c0-3.2,2.6-5.8,5.7-5.7c3.2,0,5.7,2.6,5.7,5.8
			C213.8,169.1,210.7,171.7,208,171.3z"/>
		<path class="st1" d="M193.5,171.3c-3.2,0-5.7-2.4-5.7-5.5c0-3.2,2.5-5.8,5.7-5.8c3.2,0,5.8,2.6,5.8,5.7
			C199.3,168.9,196.8,171.3,193.5,171.3z"/>
		<path class="st1" d="M179.3,171.3c-3.3,0-5.8-2.4-5.7-5.6c0-3.2,2.6-5.7,5.8-5.7c3.1,0,5.6,2.6,5.7,5.7
			C185.1,168.8,182.6,171.3,179.3,171.3z"/>
		<path class="st1" d="M164.8,171.3c-3.3,0-5.8-2.4-5.7-5.6c0-3.2,2.6-5.7,5.8-5.7c3.1,0,5.6,2.6,5.7,5.7
			C170.6,168.8,168.1,171.3,164.8,171.3z"/>
		<path class="st1" d="M150.3,171.3c-3.3,0-5.8-2.4-5.7-5.6c0-3.2,2.6-5.7,5.8-5.7c3.1,0,5.6,2.6,5.7,5.7
			C156.1,168.8,153.6,171.3,150.3,171.3z"/>
		<path class="st1" d="M136,171.3c-3.3,0-5.7-2.5-5.7-5.7c0-3.1,2.6-5.6,5.7-5.7c3.2,0,5.8,2.5,5.8,5.7
			C141.8,168.9,139.3,171.3,136,171.3z"/>
		<path class="st1" d="M121.5,171.3c-3.2,0-5.6-2.4-5.6-5.6c0-3.2,2.6-5.8,5.7-5.7c3.2,0,5.7,2.6,5.7,5.8
			C127.2,169.1,124.2,171.7,121.5,171.3z"/>
		<path class="st1" d="M107.2,171.3c-3.2,0-5.6-2.4-5.7-5.6c0-3.2,2.6-5.8,5.7-5.7c3.2,0,5.7,2.6,5.7,5.8
			C113,169.1,109.9,171.7,107.2,171.3z"/>
		<path class="st1" d="M92.7,171.3c-3.2,0-5.7-2.4-5.7-5.6c0-3.2,2.5-5.8,5.7-5.8c3.2,0,5.8,2.6,5.7,5.7
			C98.5,169.2,95.3,171.7,92.7,171.3z"/>
		<path class="st1" d="M78.5,171.3c-3.3,0-5.7-2.4-5.7-5.7c0-3.1,2.6-5.6,5.7-5.7c3.2,0,5.8,2.5,5.8,5.7
			C84.3,168.9,81.8,171.3,78.5,171.3z"/>
		<path class="st1" d="M64,171.3c-3.3,0-5.8-2.4-5.8-5.6c0-3.2,2.6-5.7,5.8-5.7c3.2,0,5.7,2.6,5.7,5.8
			C69.7,168.9,67.3,171.3,64,171.3z"/>
		<path class="st1" d="M49.4,171.3c-3.2,0-5.6-2.4-5.7-5.6c0-3.2,2.6-5.8,5.7-5.8c3.2,0,5.7,2.6,5.7,5.8
			C55.2,169.1,52.1,171.7,49.4,171.3z"/>
		<path class="st1" d="M35.2,171.3c-3.2,0-5.6-2.4-5.7-5.6c0-3.2,2.5-5.8,5.7-5.8c3.2,0,5.8,2.6,5.7,5.7
			C41,169.2,37.8,171.7,35.2,171.3z"/>
		<path class="st1" d="M20.7,171.3c-3.3,0-5.8-2.4-5.7-5.6c0-3.1,2.5-5.6,5.7-5.7c3.2,0,5.8,2.5,5.8,5.7
			C26.5,168.8,24,171.3,20.7,171.3z"/>
		<path class="st1" d="M236.8,171.3c-3.2,0-5.6-2.4-5.6-5.6c0-3.2,2.6-5.7,5.8-5.7c3.1,0,5.6,2.5,5.6,5.7
			C242.6,169.2,239.4,171.7,236.8,171.3z"/>
		<path class="st1" d="M8.7,160.5c2.3,1,3.6,3.1,3.4,5.6c-0.2,2.3-1.8,4.3-4.1,4.9c-2.3,0.7-4.8-0.3-6.2-2.2
			c-0.5-0.7-0.5-1.1,0.1-1.7C4.3,165,6.5,162.8,8.7,160.5z"/>
		<path class="st1" d="M231.7,147.3c3,3.1,6,6.2,9,9.3c-1.9,2-5.8,1.9-8.2-0.2C229.8,154.1,229.4,150.1,231.7,147.3z"/>
		<path class="st1" d="M246.2,163.1c2.7,2.3,5.3,4.6,8,7c-2.1,1.7-4.9,1.5-6.8-0.1C245.4,168.1,244.9,165.3,246.2,163.1z"/>
	</g>
	<g>
		<path class="st2" d="M163.4,76.2l-21.2-22h-30.7l-21.2,22c8.5,10.9,21.7,17.9,36.6,17.9C141.7,94.1,154.9,87.1,163.4,76.2z"/>
	</g>
</g>
</svg>
